<?xml version="1.0" encoding="utf-8"?>
<!-- Generator: Adobe Illustrator 24.0.3, SVG Export Plug-In . SVG Version: 6.00 Build 0)  -->
<svg version="1.1" id="Layer_1" xmlns="http://www.w3.org/2000/svg" xmlns:xlink="http://www.w3.org/1999/xlink" x="0px" y="0px"
	 viewBox="150 155 300 260" style="enable-background:new 0 0 600 600;" xml:space="preserve">
<style type="text/css">
	.st0{fill:#FFFFFF;}
	.st1{fill:#22a786;}
</style>
<rect class="st0" width="600" height="600"/>
<g>
	<g id="b76d84eb-652e-4f43-b3b0-3daa2076fd15">
		<g id="a81b0f81-b42e-41fa-a794-f496bd0aeff5">
			<path class="st1" d="M335.2,326.3l32.8-24.6c16.3,24.5,32.6,48.9,49.1,73.6H220.4c16.3-43.6,32.7-87.1,49.2-130.9
				C291.6,271.8,313.3,298.9,335.2,326.3z"/>
			<path class="st1" d="M417,251.5c0.5,13.5-10.1,24.8-23.5,25.2c-13.5,0.5-24.8-10.1-25.2-23.5c-0.5-13.5,10.1-24.8,23.5-25.2
				c0,0,0.1,0,0.1,0c13.3-0.6,24.6,9.8,25.1,23.1C417,251.2,417,251.4,417,251.5z"/>
			<path class="st1" d="M412.5,195.1v-37.4H150v213.1h37.5v37.3H450v-213H412.5z M166.5,354.4V174.1H396v21H187.5v159.3H166.5z
				 M433.5,391.7H203.9V211.4h229.6V391.7z"/>
		</g>
	</g>
</g>
</svg>
