<?xml version="1.0" encoding="utf-8"?>
<!-- Generator: Adobe Illustrator 24.0.3, SVG Export Plug-In . SVG Version: 6.00 Build 0)  -->
<svg version="1.1" id="Layer_1" xmlns="http://www.w3.org/2000/svg" xmlns:xlink="http://www.w3.org/1999/xlink" x="0px" y="0px"
	 viewBox="150 150 300 300" style="enable-background:new 0 0 600 600;" xml:space="preserve">
<style type="text/css">
	.st0{fill:#FFFFFF;}
	.st1{fill:#22a786;}
</style>
<rect class="st0" width="600" height="600"/>
<g>
	<g id="b76d84eb-652e-4f43-b3b0-3daa2076fd15">
		<g id="a81b0f81-b42e-41fa-a794-f496bd0aeff5">
			<path class="st1" d="M335.2,326.3l32.8-24.6c16.3,24.5,32.6,48.9,49.1,73.6H220.4c16.3-43.6,32.7-87.1,49.2-130.9
				C291.6,271.8,313.3,298.9,335.2,326.3z"/>
			<path class="st1" d="M417,251.5c0.5,13.5-10.1,24.8-23.5,25.2c-13.5,0.5-24.8-10.1-25.2-23.5c-0.5-13.5,10.1-24.8,23.5-25.2
				c0,0,0.1,0,0.1,0c13.3-0.6,24.6,9.8,25.1,23.1C417,251.2,417,251.4,417,251.5z"/>
			<path class="st1" d="M412.5,195.1v-37.4H150v213.1h37.5v37.3H450v-213H412.5z M166.5,354.4V174.1H396v21H187.5v159.3H166.5z
				 M433.5,391.7H203.9V211.4h229.6V391.7z"/>
		</g>
	</g>
	<g>
		<path class="st1" d="M164.9,441.9c-0.4-0.7-0.8-1.4-1.3-2.2s-1.1-1.7-1.6-2.5c-0.6-0.9-1.2-1.8-1.8-2.7c-0.6-0.9-1.3-1.8-1.9-2.6
			c-0.6-0.8-1.2-1.6-1.8-2.4c-0.6-0.7-1.1-1.4-1.6-2v14.4h-2.5v-18.4h2c0.8,0.9,1.7,1.9,2.7,3.1c0.9,1.2,1.9,2.4,2.8,3.6
			c0.9,1.3,1.8,2.5,2.6,3.7s1.5,2.3,2.1,3.2v-13.7h2.5v18.4H164.9z"/>
		<path class="st1" d="M170.9,432.6c0-1.6,0.2-3,0.7-4.2c0.5-1.2,1.1-2.2,1.9-3c0.8-0.8,1.7-1.4,2.8-1.8c1.1-0.4,2.2-0.6,3.4-0.6
			c1.2,0,2.3,0.2,3.4,0.6c1.1,0.4,2,1,2.8,1.8c0.8,0.8,1.4,1.8,1.9,3c0.5,1.2,0.7,2.6,0.7,4.2s-0.2,3-0.7,4.2
			c-0.5,1.2-1.1,2.2-1.9,3c-0.8,0.8-1.7,1.4-2.8,1.8c-1.1,0.4-2.2,0.6-3.4,0.6c-1.2,0-2.3-0.2-3.4-0.6s-2-1-2.8-1.8
			c-0.8-0.8-1.4-1.8-1.9-3S170.9,434.2,170.9,432.6z M173.6,432.6c0,1.1,0.1,2.1,0.4,3c0.3,0.9,0.7,1.7,1.2,2.3
			c0.5,0.6,1.2,1.1,1.9,1.5s1.6,0.5,2.5,0.5s1.8-0.2,2.5-0.5s1.4-0.8,1.9-1.5c0.5-0.6,0.9-1.4,1.2-2.3c0.3-0.9,0.4-1.9,0.4-3
			c0-1.1-0.1-2.1-0.4-3c-0.3-0.9-0.7-1.7-1.2-2.3c-0.5-0.6-1.2-1.1-1.9-1.5s-1.6-0.5-2.5-0.5s-1.8,0.2-2.5,0.5s-1.4,0.8-1.9,1.5
			c-0.5,0.6-0.9,1.4-1.2,2.3C173.7,430.5,173.6,431.5,173.6,432.6z"/>
		<path class="st1" d="M203.4,423.2c2.6,0,4.6,0.5,6,1.5c1.4,1,2.1,2.5,2.1,4.4c0,1.1-0.2,2-0.6,2.7c-0.4,0.8-0.9,1.4-1.7,1.8
			c-0.7,0.5-1.6,0.8-2.6,1s-2.2,0.3-3.5,0.3h-2v6.8h-2.6v-18.2c0.7-0.2,1.5-0.3,2.4-0.4C201.8,423.3,202.6,423.2,203.4,423.2z
			 M203.6,425.5c-1.1,0-1.9,0-2.5,0.1v7.2h1.9c0.9,0,1.7-0.1,2.4-0.2c0.7-0.1,1.3-0.3,1.8-0.6c0.5-0.3,0.9-0.7,1.1-1.1
			c0.3-0.5,0.4-1.1,0.4-1.8c0-0.7-0.1-1.3-0.4-1.8c-0.3-0.5-0.6-0.8-1.1-1.1c-0.5-0.3-1-0.5-1.6-0.6
			C204.9,425.6,204.3,425.5,203.6,425.5z"/>
		<path class="st1" d="M223.7,434.2c0.3,0.4,0.6,0.8,1.1,1.4s0.9,1.2,1.3,1.9c0.5,0.7,0.9,1.4,1.4,2.2s0.8,1.5,1.2,2.2h-2.8
			c-0.4-0.7-0.7-1.4-1.2-2c-0.4-0.7-0.8-1.4-1.3-2c-0.4-0.6-0.8-1.2-1.3-1.8c-0.4-0.5-0.8-1-1.1-1.4c-0.2,0-0.5,0-0.7,0
			c-0.2,0-0.5,0-0.7,0h-2.3v7.2h-2.6v-18.2c0.7-0.2,1.5-0.3,2.4-0.4c0.9-0.1,1.7-0.1,2.5-0.1c2.6,0,4.6,0.5,5.9,1.5
			c1.4,1,2,2.4,2,4.4c0,1.2-0.3,2.3-1,3.1C225.9,433.1,224.9,433.7,223.7,434.2z M219.8,425.5c-1.1,0-1.9,0-2.5,0.1v6.9h1.8
			c0.9,0,1.7,0,2.4-0.1c0.7-0.1,1.3-0.3,1.8-0.5c0.5-0.2,0.9-0.6,1.1-1.1c0.3-0.5,0.4-1.1,0.4-1.8c0-0.7-0.1-1.3-0.4-1.7
			c-0.3-0.5-0.6-0.8-1.1-1.1c-0.5-0.3-1-0.5-1.6-0.6C221.1,425.6,220.5,425.5,219.8,425.5z"/>
		<path class="st1" d="M231.4,441.9v-18.4h11.3v2.2H234v5.5h7.7v2.2H234v6.4h9.3v2.2H231.4z"/>
		<path class="st1" d="M261.5,423.4c-0.7,2-1.3,3.8-1.9,5.4c-0.6,1.7-1.2,3.2-1.8,4.7c-0.6,1.5-1.2,2.9-1.7,4.3
			c-0.6,1.4-1.2,2.7-1.8,4h-2.4c-0.6-1.3-1.2-2.7-1.8-4c-0.6-1.4-1.2-2.8-1.8-4.3c-0.6-1.5-1.2-3.1-1.8-4.7
			c-0.6-1.7-1.3-3.5-1.9-5.4h2.8c1,2.8,1.9,5.5,2.8,8.1c0.9,2.6,1.9,5,2.8,7.3c1-2.3,1.9-4.7,2.8-7.3c0.9-2.6,1.9-5.3,2.8-8.1H261.5
			z"/>
		<path class="st1" d="M264.1,423.4h2.6v18.4h-2.6V423.4z"/>
		<path class="st1" d="M271.2,441.9v-18.4h11.3v2.2h-8.7v5.5h7.7v2.2h-7.7v6.4h9.3v2.2H271.2z"/>
		<path class="st1" d="M296.5,429.4c-0.7,2.4-1.5,4.6-2.3,6.6c-0.8,2-1.5,4-2.3,5.9h-2.6c-0.9-2.7-1.8-5.6-2.5-8.6
			c-0.7-3-1.4-6.3-2-9.9h2.7c0.2,1.4,0.5,2.8,0.8,4.2s0.5,2.7,0.8,4c0.3,1.3,0.6,2.6,0.9,3.7c0.3,1.2,0.6,2.3,0.9,3.3
			c0.7-1.9,1.5-3.9,2.3-6.1c0.8-2.2,1.5-4.5,2.2-6.9h2.2c0.7,2.4,1.4,4.7,2.3,6.9c0.8,2.2,1.6,4.3,2.3,6.1c0.3-1,0.6-2.1,0.9-3.3
			c0.3-1.2,0.6-2.4,0.8-3.7c0.3-1.3,0.5-2.7,0.8-4c0.3-1.4,0.5-2.8,0.8-4.2h2.6c-0.6,3.5-1.3,6.8-2,9.9c-0.7,3-1.5,5.9-2.5,8.6H301
			c-0.8-1.9-1.5-3.9-2.3-5.9S297.3,431.7,296.5,429.4z"/>
		<path class="st1" d="M329.6,441.9c-0.3-0.8-0.6-1.6-0.9-2.4c-0.3-0.8-0.5-1.6-0.8-2.4h-8.4l-1.7,4.7h-2.7c0.7-2,1.4-3.8,2-5.4
			c0.6-1.7,1.2-3.2,1.8-4.7c0.6-1.5,1.2-2.9,1.8-4.3c0.6-1.4,1.2-2.7,1.8-4h2.4c0.6,1.3,1.3,2.7,1.8,4c0.6,1.4,1.2,2.8,1.8,4.3
			c0.6,1.5,1.2,3.1,1.8,4.7c0.6,1.7,1.3,3.5,2,5.4H329.6z M327.2,435c-0.6-1.5-1.1-3-1.7-4.5c-0.6-1.4-1.1-2.8-1.7-4.2
			c-0.6,1.3-1.2,2.7-1.8,4.2c-0.6,1.4-1.1,2.9-1.7,4.5H327.2z"/>
		<path class="st1" d="M348.2,423.4c-0.7,2-1.3,3.8-1.9,5.4c-0.6,1.7-1.2,3.2-1.8,4.7c-0.6,1.5-1.2,2.9-1.7,4.3
			c-0.6,1.4-1.2,2.7-1.8,4h-2.4c-0.6-1.3-1.2-2.7-1.8-4c-0.6-1.4-1.2-2.8-1.8-4.3s-1.2-3.1-1.8-4.7c-0.6-1.7-1.3-3.5-1.9-5.4h2.8
			c1,2.8,1.9,5.5,2.8,8.1s1.9,5,2.8,7.3c1-2.3,1.9-4.7,2.8-7.3s1.9-5.3,2.8-8.1H348.2z"/>
		<path class="st1" d="M361.5,441.9c-0.3-0.8-0.6-1.6-0.9-2.4c-0.3-0.8-0.5-1.6-0.8-2.4h-8.4l-1.7,4.7h-2.7c0.7-2,1.4-3.8,2-5.4
			c0.6-1.7,1.2-3.2,1.8-4.7c0.6-1.5,1.2-2.9,1.8-4.3c0.6-1.4,1.2-2.7,1.8-4h2.4c0.6,1.3,1.3,2.7,1.8,4c0.6,1.4,1.2,2.8,1.8,4.3
			c0.6,1.5,1.2,3.1,1.8,4.7c0.6,1.7,1.3,3.5,2,5.4H361.5z M359,435c-0.6-1.5-1.1-3-1.7-4.5c-0.6-1.4-1.1-2.8-1.7-4.2
			c-0.6,1.3-1.2,2.7-1.8,4.2c-0.6,1.4-1.1,2.9-1.7,4.5H359z"/>
		<path class="st1" d="M366.8,423.4h2.6v18.4h-2.6V423.4z"/>
		<path class="st1" d="M385,439.6v2.2h-11.1v-18.4h2.6v16.2H385z"/>
		<path class="st1" d="M400.8,441.9c-0.3-0.8-0.6-1.6-0.9-2.4c-0.3-0.8-0.5-1.6-0.8-2.4h-8.4l-1.7,4.7h-2.7c0.7-2,1.4-3.8,2-5.4
			c0.6-1.7,1.2-3.2,1.8-4.7c0.6-1.5,1.2-2.9,1.8-4.3c0.6-1.4,1.2-2.7,1.8-4h2.4c0.6,1.3,1.3,2.7,1.8,4c0.6,1.4,1.2,2.8,1.8,4.3
			c0.6,1.5,1.2,3.1,1.8,4.7c0.6,1.7,1.3,3.5,2,5.4H400.8z M398.4,435c-0.6-1.5-1.1-3-1.7-4.5c-0.6-1.4-1.1-2.8-1.7-4.2
			c-0.6,1.3-1.2,2.7-1.8,4.2c-0.6,1.4-1.1,2.9-1.7,4.5H398.4z"/>
		<path class="st1" d="M411.1,442c-0.4,0-0.8,0-1.2,0c-0.4,0-0.9,0-1.3-0.1c-0.4,0-0.9-0.1-1.3-0.1s-0.8-0.1-1.2-0.2v-17.9
			c0.4-0.1,0.7-0.2,1.2-0.2s0.9-0.1,1.3-0.1c0.4,0,0.9-0.1,1.3-0.1c0.4,0,0.8,0,1.2,0c1.1,0,2.1,0.1,3,0.2c0.9,0.2,1.7,0.4,2.4,0.8
			c0.7,0.4,1.2,0.9,1.6,1.5c0.4,0.6,0.6,1.4,0.6,2.3c0,1-0.2,1.8-0.7,2.5c-0.5,0.6-1.1,1.1-1.9,1.5c1.1,0.3,1.9,0.8,2.6,1.5
			c0.6,0.7,1,1.7,1,2.9c0,1.8-0.7,3.2-2,4.2C416.2,441.6,414.1,442,411.1,442z M408.7,431.2h2.7c0.6,0,1.2,0,1.8-0.1
			c0.6-0.1,1.1-0.2,1.5-0.5c0.4-0.2,0.7-0.5,1-0.9c0.2-0.4,0.4-0.8,0.4-1.4c0-0.5-0.1-1-0.4-1.3c-0.2-0.4-0.6-0.7-1-0.9
			c-0.4-0.2-0.9-0.4-1.5-0.5s-1.2-0.2-1.9-0.2c-0.7,0-1.2,0-1.5,0c-0.4,0-0.7,0-1,0.1V431.2z M408.7,433.3v6.5c0.2,0,0.4,0,0.7,0.1
			c0.2,0,0.5,0,0.8,0s0.7,0,1.1,0c0.8,0,1.5,0,2.2-0.1c0.7-0.1,1.3-0.3,1.8-0.5s0.9-0.6,1.2-1c0.3-0.4,0.5-1,0.5-1.7
			c0-0.6-0.1-1.1-0.3-1.5c-0.2-0.4-0.6-0.7-1-1c-0.4-0.2-1-0.4-1.6-0.5s-1.3-0.2-2-0.2H408.7z"/>
		<path class="st1" d="M434.4,439.6v2.2h-11.1v-18.4h2.6v16.2H434.4z"/>
		<path class="st1" d="M437.1,441.9v-18.4h11.3v2.2h-8.7v5.5h7.7v2.2h-7.7v6.4h9.3v2.2H437.1z"/>
	</g>
</g>
</svg>
